<svg viewBox="0 0 32 32" xml:space="preserve" xmlns="http://www.w3.org/2000/svg"><g fill="none" stroke="#FFFFFF" stroke-linecap="round" stroke-linejoin="round" stroke-miterlimit="10" stroke-width="2" class="stroke-ffffff"></g><path d="M16 30c-.215 0-.43-.069-.61-.207C14.844 29.372 2 19.396 2 11c0-4.411 3.589-8 8-8s8 3.589 8 8a1 1 0 1 1-2 0c0-3.309-2.691-6-6-6s-6 2.691-6 6c0 6.467 9.477 14.653 12 16.719C18.522 25.653 28 17.46 28 11a6.006 6.006 0 0 0-8.559-5.43 1 1 0 1 1-.853-1.809A7.946 7.946 0 0 1 22 3c4.411 0 8 3.589 8 8 0 8.396-12.844 18.372-13.39 18.793-.18.138-.395.207-.61.207z" fill="#cccccc" class="fill-000000"></path></svg>